HIERARCHY
ROOT mixamorig:Hips
{
	OFFSET -0.000008 104.274872 1.554316
	CHANNELS 6 Xposition Yposition Zposition Xrotation Yrotation Zrotation
	JOINT mixamorig:Spine
	{
		OFFSET -0.000005 10.181595 0.131519
		CHANNELS 6 Xposition Yposition Zposition Xrotation Yrotation Zrotation
		JOINT mixamorig:Spine1
		{
			OFFSET -0.000000 9.893959 -1.470707
			CHANNELS 6 Xposition Yposition Zposition Xrotation Yrotation Zrotation
			JOINT mixamorig:Spine2
			{
				OFFSET -0.000000 9.220757 -1.370641
				CHANNELS 6 Xposition Yposition Zposition Xrotation Yrotation Zrotation
				JOINT mixamorig:Neck
				{
					OFFSET 0.000001 16.740417 -2.049036
					CHANNELS 6 Xposition Yposition Zposition Xrotation Yrotation Zrotation
					JOINT mixamorig:Head
					{
						OFFSET 0.000000 9.617874 1.685006
						CHANNELS 6 Xposition Yposition Zposition Xrotation Yrotation Zrotation
						JOINT mixamorig:HeadTop_End
						{
							OFFSET 0.000002 22.037354 7.501101
							CHANNELS 6 Xposition Yposition Zposition Xrotation Yrotation Zrotation
							End Site
							{
								OFFSET 0.000168 2310.654297 -282.823242
							}
						}
					}
				}
				JOINT mixamorig:RightShoulder
				{
					OFFSET -4.569970 11.014908 -2.160885
					CHANNELS 6 Xposition Yposition Zposition Xrotation Yrotation Zrotation
					JOINT mixamorig:RightArm
					{
						OFFSET -10.592851 -0.524811 -2.232101
						CHANNELS 6 Xposition Yposition Zposition Xrotation Yrotation Zrotation
						JOINT mixamorig:RightForeArm
						{
							OFFSET -27.841511 0.000031 -0.000004
							CHANNELS 6 Xposition Yposition Zposition Xrotation Yrotation Zrotation
							JOINT mixamorig:RightHand
							{
								OFFSET -28.328831 -0.000015 0.000015
								CHANNELS 6 Xposition Yposition Zposition Xrotation Yrotation Zrotation
								JOINT mixamorig:RightHandThumb1
								{
									OFFSET -2.464806 -1.573990 2.681852
									CHANNELS 6 Xposition Yposition Zposition Xrotation Yrotation Zrotation
									JOINT mixamorig:RightHandThumb2
									{
										OFFSET -3.215179 -1.872803 1.924282
										CHANNELS 6 Xposition Yposition Zposition Xrotation Yrotation Zrotation
										JOINT mixamorig:RightHandThumb3
										{
											OFFSET -2.654831 -1.527969 1.512609
											CHANNELS 6 Xposition Yposition Zposition Xrotation Yrotation Zrotation
											JOINT mixamorig:RightHandThumb4
											{
												OFFSET -2.018814 -1.152008 1.108052
												CHANNELS 6 Xposition Yposition Zposition Xrotation Yrotation Zrotation
												End Site
												{
													OFFSET -188.809540 -114.533607 132.431396
												}
											}
										}
									}
								}
								JOINT mixamorig:RightHandIndex1
								{
									OFFSET -9.108284 -0.517868 2.259835
									CHANNELS 6 Xposition Yposition Zposition Xrotation Yrotation Zrotation
									JOINT mixamorig:RightHandIndex2
									{
										OFFSET -3.699989 0.000000 0.001215
										CHANNELS 6 Xposition Yposition Zposition Xrotation Yrotation Zrotation
										JOINT mixamorig:RightHandIndex3
										{
											OFFSET -2.850006 0.000031 -0.000522
											CHANNELS 6 Xposition Yposition Zposition Xrotation Yrotation Zrotation
											JOINT mixamorig:RightHandIndex4
											{
												OFFSET -2.772186 -0.000015 -0.000020
												CHANNELS 6 Xposition Yposition Zposition Xrotation Yrotation Zrotation
												End Site
												{
													OFFSET -277.218445 0.000000 -0.050231
												}
											}
										}
									}
								}
								JOINT mixamorig:RightHandMiddle1
								{
									OFFSET -9.532516 -0.000031 -0.000023
									CHANNELS 6 Xposition Yposition Zposition Xrotation Yrotation Zrotation
									JOINT mixamorig:RightHandMiddle2
									{
										OFFSET -3.700005 -0.000015 0.003713
										CHANNELS 6 Xposition Yposition Zposition Xrotation Yrotation Zrotation
										JOINT mixamorig:RightHandMiddle3
										{
											OFFSET -2.949974 0.000015 -0.002054
											CHANNELS 6 Xposition Yposition Zposition Xrotation Yrotation Zrotation
											JOINT mixamorig:RightHandMiddle4
											{
												OFFSET -2.946640 0.000000 -0.000156
												CHANNELS 6 Xposition Yposition Zposition Xrotation Yrotation Zrotation
												End Site
												{
													OFFSET -294.664337 0.000000 -0.113670
												}
											}
										}
									}
								}
								JOINT mixamorig:RightHandRing1
								{
									OFFSET -9.103600 -0.043076 -1.865134
									CHANNELS 6 Xposition Yposition Zposition Xrotation Yrotation Zrotation
									JOINT mixamorig:RightHandRing2
									{
										OFFSET -3.379288 0.000000 -0.001055
										CHANNELS 6 Xposition Yposition Zposition Xrotation Yrotation Zrotation
										JOINT mixamorig:RightHandRing3
										{
											OFFSET -2.889687 -0.000015 0.000379
											CHANNELS 6 Xposition Yposition Zposition Xrotation Yrotation Zrotation
											JOINT mixamorig:RightHandRing4
											{
												OFFSET -2.638809 -0.000015 0.000941
												CHANNELS 6 Xposition Yposition Zposition Xrotation Yrotation Zrotation
												End Site
												{
													OFFSET -263.880371 0.000000 0.516020
												}
											}
										}
									}
								}
								JOINT mixamorig:RightHandPinky1
								{
									OFFSET -8.076683 -0.486710 -3.806280
									CHANNELS 6 Xposition Yposition Zposition Xrotation Yrotation Zrotation
									JOINT mixamorig:RightHandPinky2
									{
										OFFSET -3.600014 -0.000015 -0.003747
										CHANNELS 6 Xposition Yposition Zposition Xrotation Yrotation Zrotation
										JOINT mixamorig:RightHandPinky3
										{
											OFFSET -2.099983 0.000000 -0.005739
											CHANNELS 6 Xposition Yposition Zposition Xrotation Yrotation Zrotation
											JOINT mixamorig:RightHandPinky4
											{
												OFFSET -2.115768 -0.000031 -0.003680
												CHANNELS 6 Xposition Yposition Zposition Xrotation Yrotation Zrotation
												End Site
												{
													OFFSET -211.577087 0.000000 -0.350686
												}
											}
										}
									}
								}
							}
						}
					}
				}
				JOINT mixamorig:LeftShoulder
				{
					OFFSET 4.570447 11.014725 -2.160855
					CHANNELS 6 Xposition Yposition Zposition Xrotation Yrotation Zrotation
					JOINT mixamorig:LeftArm
					{
						OFFSET 10.592371 -0.524597 -2.232119
						CHANNELS 6 Xposition Yposition Zposition Xrotation Yrotation Zrotation
						JOINT mixamorig:LeftForeArm
						{
							OFFSET 27.841532 -0.000031 0.000026
							CHANNELS 6 Xposition Yposition Zposition Xrotation Yrotation Zrotation
							JOINT mixamorig:LeftHand
							{
								OFFSET 28.328846 -0.000061 0.000022
								CHANNELS 6 Xposition Yposition Zposition Xrotation Yrotation Zrotation
								JOINT mixamorig:LeftHandThumb1
								{
									OFFSET 2.466141 -1.576172 2.681732
									CHANNELS 6 Xposition Yposition Zposition Xrotation Yrotation Zrotation
									JOINT mixamorig:LeftHandThumb2
									{
										OFFSET 3.217812 -1.872070 1.916482
										CHANNELS 6 Xposition Yposition Zposition Xrotation Yrotation Zrotation
										JOINT mixamorig:LeftHandThumb3
										{
											OFFSET 2.656029 -1.528778 1.514513
											CHANNELS 6 Xposition Yposition Zposition Xrotation Yrotation Zrotation
											JOINT mixamorig:LeftHandThumb4
											{
												OFFSET 2.020889 -1.154053 1.115139
												CHANNELS 6 Xposition Yposition Zposition Xrotation Yrotation Zrotation
												End Site
												{
													OFFSET 190.885437 -115.081749 130.048782
												}
											}
										}
									}
								}
								JOINT mixamorig:LeftHandIndex1
								{
									OFFSET 9.109314 -0.518021 2.259871
									CHANNELS 6 Xposition Yposition Zposition Xrotation Yrotation Zrotation
									JOINT mixamorig:LeftHandIndex2
									{
										OFFSET 3.699989 0.000000 -0.000322
										CHANNELS 6 Xposition Yposition Zposition Xrotation Yrotation Zrotation
										JOINT mixamorig:LeftHandIndex3
										{
											OFFSET 2.850006 0.000000 0.000352
											CHANNELS 6 Xposition Yposition Zposition Xrotation Yrotation Zrotation
											JOINT mixamorig:LeftHandIndex4
											{
												OFFSET 2.774864 -0.000031 -0.000027
												CHANNELS 6 Xposition Yposition Zposition Xrotation Yrotation Zrotation
												End Site
												{
													OFFSET 277.486267 0.000000 -0.009857
												}
											}
										}
									}
								}
								JOINT mixamorig:LeftHandMiddle1
								{
									OFFSET 9.533394 0.000061 0.000044
									CHANNELS 6 Xposition Yposition Zposition Xrotation Yrotation Zrotation
									JOINT mixamorig:LeftHandMiddle2
									{
										OFFSET 3.699989 -0.000015 -0.000231
										CHANNELS 6 Xposition Yposition Zposition Xrotation Yrotation Zrotation
										JOINT mixamorig:LeftHandMiddle3
										{
											OFFSET 2.949997 -0.000015 -0.000059
											CHANNELS 6 Xposition Yposition Zposition Xrotation Yrotation Zrotation
											JOINT mixamorig:LeftHandMiddle4
											{
												OFFSET 2.952896 0.000031 0.000063
												CHANNELS 6 Xposition Yposition Zposition Xrotation Yrotation Zrotation
												End Site
												{
													OFFSET 295.289337 0.000000 0.022810
												}
											}
										}
									}
								}
								JOINT mixamorig:LeftHandRing1
								{
									OFFSET 9.104523 -0.042999 -1.865074
									CHANNELS 6 Xposition Yposition Zposition Xrotation Yrotation Zrotation
									JOINT mixamorig:LeftHandRing2
									{
										OFFSET 3.150009 -0.000031 0.000043
										CHANNELS 6 Xposition Yposition Zposition Xrotation Yrotation Zrotation
										JOINT mixamorig:LeftHandRing3
										{
											OFFSET 2.949982 -0.000015 0.000040
											CHANNELS 6 Xposition Yposition Zposition Xrotation Yrotation Zrotation
											JOINT mixamorig:LeftHandRing4
											{
												OFFSET 2.644348 0.000000 0.000057
												CHANNELS 6 Xposition Yposition Zposition Xrotation Yrotation Zrotation
												End Site
												{
													OFFSET 264.434631 0.000000 0.012105
												}
											}
										}
									}
								}
								JOINT mixamorig:LeftHandPinky1
								{
									OFFSET 8.077789 -0.486847 -3.806259
									CHANNELS 6 Xposition Yposition Zposition Xrotation Yrotation Zrotation
									JOINT mixamorig:LeftHandPinky2
									{
										OFFSET 3.599953 0.000031 0.014727
										CHANNELS 6 Xposition Yposition Zposition Xrotation Yrotation Zrotation
										JOINT mixamorig:LeftHandPinky3
										{
											OFFSET 2.100021 0.000015 0.007705
											CHANNELS 6 Xposition Yposition Zposition Xrotation Yrotation Zrotation
											JOINT mixamorig:LeftHandPinky4
											{
												OFFSET 2.125504 0.000031 0.007517
												CHANNELS 6 Xposition Yposition Zposition Xrotation Yrotation Zrotation
												End Site
												{
													OFFSET 212.550781 0.000000 0.625752
												}
											}
										}
									}
								}
							}
						}
					}
				}
			}
		}
	}
	JOINT mixamorig:RightUpLeg
	{
		OFFSET -8.207787 -6.751648 -1.599560
		CHANNELS 6 Xposition Yposition Zposition Xrotation Yrotation Zrotation
		JOINT mixamorig:RightLeg
		{
			OFFSET -0.000002 -44.370117 0.345942
			CHANNELS 6 Xposition Yposition Zposition Xrotation Yrotation Zrotation
			JOINT mixamorig:RightFoot
			{
				OFFSET 0.000003 -44.423679 -3.043532
				CHANNELS 6 Xposition Yposition Zposition Xrotation Yrotation Zrotation
				JOINT mixamorig:RightToeBase
				{
					OFFSET -0.000002 -8.728671 10.710558
					CHANNELS 6 Xposition Yposition Zposition Xrotation Yrotation Zrotation
					JOINT mixamorig:RightToe_End
					{
						OFFSET -0.000001 -0.000679 9.278119
						CHANNELS 6 Xposition Yposition Zposition Xrotation Yrotation Zrotation
						End Site
						{
							OFFSET 0.000000 -0.067690 927.812134
						}
					}
				}
			}
		}
	}
	JOINT mixamorig:LeftUpLeg
	{
		OFFSET 8.207793 -6.751686 -1.599556
		CHANNELS 6 Xposition Yposition Zposition Xrotation Yrotation Zrotation
		JOINT mixamorig:LeftLeg
		{
			OFFSET -0.000004 -44.370014 0.346954
			CHANNELS 6 Xposition Yposition Zposition Xrotation Yrotation Zrotation
			JOINT mixamorig:LeftFoot
			{
				OFFSET -0.000001 -44.423672 -3.044401
				CHANNELS 6 Xposition Yposition Zposition Xrotation Yrotation Zrotation
				JOINT mixamorig:LeftToeBase
				{
					OFFSET -0.000002 -8.728669 10.710558
					CHANNELS 6 Xposition Yposition Zposition Xrotation Yrotation Zrotation
					JOINT mixamorig:LeftToe_End
					{
						OFFSET -0.000003 -0.000679 9.278133
						CHANNELS 6 Xposition Yposition Zposition Xrotation Yrotation Zrotation
						End Site
						{
							OFFSET 0.000000 -0.068021 927.813477
						}
					}
				}
			}
		}
	}
}
MOTION
Frames: 3
Frame Time: 0.033333
0.000006 104.270477 1.554256 0.000010 0.000003 -0.000113 -0.000005 10.181587 0.131522 0.000001 -0.000003 0.000084 -0.000000 9.893967 -1.470711 0.000001 0.000000 -0.000000 -0.000000 9.220802 -1.370642 0.000000 -0.000000 -0.000000 0.000001 16.740433 -2.049030 0.000000 -0.000000 -0.000000 0.000000 9.617859 1.685014 0.000000 0.000000 0.000000 0.000002 22.037384 7.501101 0.000000 -0.000000 0.000000 -4.569968 11.014880 -2.160881 0.000008 0.000001 -0.000038 -10.592777 -0.524844 -2.231737 70.069586 68.657717 -51.168775 -27.841486 0.000018 0.000591 -128.412228 70.322139 111.092556 -28.328829 0.000005 0.000015 -0.000326 -0.000044 0.000007 -2.464389 -1.574084 2.682225 9.729052 -113.867682 58.722968 -3.214887 -1.873036 1.924493 89.332966 -129.809931 137.935916 -2.654623 -1.528263 1.512851 270.798969 -37.698471 -37.724685 -2.018822 -1.151983 1.108064 -0.000003 -0.000005 0.000000 -9.108293 -0.517877 2.260376 228.915593 10.009117 21.855989 -3.699999 -0.000010 0.001764 231.102319 14.064048 28.911661 -2.850028 0.000018 0.000023 235.961343 13.475580 25.073146 -2.772157 -0.000015 -0.000037 -0.000003 -0.000000 0.000000 -9.532518 -0.000079 0.000502 229.018374 8.663786 19.061072 -3.700010 0.000019 0.004264 230.183713 13.561234 28.386188 -2.950012 -0.000065 -0.001527 236.791238 10.429352 19.156642 -2.946625 -0.000014 -0.000160 0.000010 0.000001 0.000000 -9.103624 -0.043097 -1.864604 230.054240 6.018782 12.784095 -3.379272 -0.000090 -0.000511 232.053382 5.690511 11.649608 -2.889739 -0.000061 0.000874 236.795500 4.318966 8.047682 -2.638815 -0.000001 0.000917 0.000001 -0.000000 -0.000001 -8.076675 -0.486800 -3.805789 232.915789 2.760370 5.314968 -3.599982 -0.000148 -0.003228 233.100805 -1.699819 -4.053838 -2.099982 -0.000151 -0.005270 234.007062 -1.424376 -3.202291 -2.115776 -0.000041 -0.003677 0.000004 -0.000000 -0.000003 4.570446 11.014691 -2.160851 -0.000018 0.000010 -0.000021 10.592516 -0.524545 -2.232386 61.367658 -66.957895 42.853457 27.841743 -0.000059 -0.000090 46.771964 -109.339697 62.773762 28.328833 -0.000013 0.000029 0.000022 -0.000089 -0.000000 2.466035 -1.576170 2.681865 -184.955949 67.191685 138.877608 3.217817 -1.872044 1.916534 257.144055 52.646340 51.921182 2.656038 -1.528772 1.514613 258.789693 39.721061 46.044668 2.020906 -1.154064 1.115151 -0.000001 0.000001 0.000002 9.109238 -0.517718 2.260073 49.866374 -168.085614 154.712787 3.699875 0.000273 -0.000101 232.743286 -16.205829 -32.060829 2.849918 0.000307 0.000602 234.414278 -14.247484 -27.326330 2.774878 -0.000044 -0.000023 0.000004 0.000000 0.000001 9.533337 0.000370 0.000256 228.381308 -9.366699 -20.658430 3.699891 0.000312 0.000013 232.243371 -14.494500 -29.073977 2.949944 0.000281 0.000171 235.421704 -12.224937 -23.050458 2.952867 -0.000031 0.000050 0.000004 -0.000001 -0.000000 9.104470 -0.042712 -1.864859 230.971070 -9.208809 -19.182354 3.149930 0.000372 0.000290 233.300602 -10.719003 -21.178842 2.949924 0.000291 0.000273 237.361368 -9.199280 -16.734669 2.644318 0.000033 0.000059 0.000007 -0.000000 0.000000 8.077724 -0.486563 -3.806034 234.419524 -8.230404 -16.660037 3.599902 0.000365 0.014942 231.015685 -6.629508 -14.575222 2.099948 0.000353 0.007909 229.914331 -6.944786 -15.567657 2.125510 -0.000015 0.007520 0.000002 0.000000 0.000001 -8.207786 -6.751667 -1.599560 -0.077001 -0.000003 0.000080 -0.000002 -44.370110 0.345938 0.153719 -0.000000 -0.000000 0.000000 -44.423679 -3.043532 -0.076700 0.000000 -0.000002 -0.000006 -8.728667 10.710559 -0.000009 -0.000000 -0.000000 -0.000001 -0.000679 9.278123 0.000000 -0.000000 -0.000000 8.207792 -6.751710 -1.599556 -0.074518 -0.000003 0.000081 -0.000002 -44.370014 0.346960 0.148822 0.000002 0.000000 -0.000001 -44.423664 -3.044403 -0.074314 0.000000 -0.000002 -0.000004 -8.728671 10.710558 0.000007 -0.000000 -0.000000 0.000000 -0.000680 9.278137 -0.000000 0.000000 -0.000001 
0.000006 104.270477 1.554256 0.000010 0.000003 -0.000113 -0.000005 10.181587 0.131522 0.000001 -0.000003 0.000084 -0.000000 9.893967 -1.470711 0.000001 0.000000 -0.000000 -0.000000 9.220802 -1.370642 0.000000 -0.000000 -0.000000 0.000001 16.740433 -2.049030 0.000000 -0.000000 -0.000000 0.000000 9.617859 1.685014 0.000000 0.000000 0.000000 0.000002 22.037384 7.501101 0.000000 -0.000000 0.000000 -4.569968 11.014880 -2.160881 0.000008 0.000001 -0.000038 -10.592772 -0.524839 -2.231734 70.466686 69.339691 -52.072112 -27.841482 0.000008 0.000596 -127.679649 69.776359 109.676336 -28.328829 0.000007 0.000023 -0.000321 -0.000044 0.000007 -2.464391 -1.574070 2.682222 10.871510 -114.573889 60.416493 -3.214886 -1.873044 1.924471 89.799878 -131.033928 138.680325 -2.654648 -1.528284 1.512868 270.098465 -36.699337 -37.808502 -2.018831 -1.151998 1.108069 -0.000002 -0.000004 0.000004 -9.108298 -0.517860 2.260379 227.346603 10.997024 24.827586 -3.699998 -0.000009 0.001772 229.588285 15.706882 33.228348 -2.850037 0.000005 0.000013 236.026694 14.725652 27.303113 -2.772171 -0.000015 -0.000035 -0.000004 0.000000 0.000000 -9.532513 -0.000041 0.000530 226.319589 9.417886 21.996940 -3.700011 0.000016 0.004260 230.132788 14.399273 30.123743 -2.950007 -0.000056 -0.001526 237.410737 11.163429 20.229552 -2.946622 0.000014 -0.000156 0.000001 -0.000001 -0.000001 -9.103620 -0.043044 -1.864589 226.943786 6.600984 15.062041 -3.379282 -0.000063 -0.000513 231.744603 6.136499 12.640447 -2.889731 -0.000080 0.000901 237.173456 4.596963 8.492711 -2.638806 0.000001 0.000930 -0.000001 -0.000001 -0.000001 -8.076678 -0.486772 -3.805779 231.158873 3.372392 6.805059 -3.599981 -0.000162 -0.003246 233.718528 -0.823148 -2.257952 -2.099987 -0.000152 -0.005260 235.243408 -0.813347 -1.946325 -2.115777 -0.000027 -0.003687 -0.000000 -0.000001 -0.000006 4.570446 11.014691 -2.160851 -0.000018 0.000010 -0.000021 10.592516 -0.524542 -2.232378 59.978432 -66.991943 41.805358 27.841740 -0.000052 -0.000095 46.574671 -108.866720 62.089650 28.328838 -0.000028 0.000024 0.000020 -0.000088 0.000000 2.466036 -1.576189 2.681871 -197.919703 64.515071 153.301246 3.217804 -1.872025 1.916535 259.538391 52.340880 49.981648 2.656047 -1.528787 1.514617 256.348638 41.212043 48.358023 2.020891 -1.154086 1.115142 -0.000001 0.000007 0.000002 9.109226 -0.517698 2.260086 49.050843 -168.771215 155.697577 3.699906 0.000260 -0.000099 233.713009 -15.391698 -29.900410 2.849924 0.000299 0.000594 236.092373 -13.417247 -24.900008 2.774879 -0.000030 -0.000039 0.000002 0.000001 0.000000 9.533355 0.000359 0.000252 226.623682 -8.969773 -20.619960 3.699896 0.000295 -0.000002 232.201625 -14.763077 -29.621123 2.949942 0.000272 0.000162 236.358368 -12.679738 -23.436319 2.952873 -0.000031 0.000064 0.000002 0.000002 0.000000 9.104477 -0.042703 -1.864873 228.962079 -9.216472 -20.079877 3.149907 0.000325 0.000282 232.261348 -11.279469 -22.765635 2.949916 0.000315 0.000285 235.377744 -9.670686 -18.317097 2.644324 0.000030 0.000072 -0.000002 0.000000 0.000000 8.077740 -0.486567 -3.806031 233.812292 -7.434624 -15.346819 3.599904 0.000359 0.014948 231.472707 -6.633617 -14.437666 2.099932 0.000347 0.007906 228.628998 -7.331661 -16.860322 2.125497 0.000001 0.007523 0.000002 -0.000000 -0.000001 -8.207786 -6.751667 -1.599560 -0.077001 -0.000003 0.000080 -0.000002 -44.370110 0.345938 0.153719 -0.000000 -0.000000 0.000000 -44.423679 -3.043532 -0.076700 0.000000 -0.000002 -0.000006 -8.728667 10.710559 -0.000009 -0.000000 -0.000000 -0.000001 -0.000679 9.278123 0.000000 -0.000000 -0.000000 8.207792 -6.751710 -1.599556 -0.074518 -0.000003 0.000081 -0.000002 -44.370014 0.346960 0.148822 0.000002 0.000000 -0.000001 -44.423664 -3.044403 -0.074314 0.000000 -0.000002 -0.000004 -8.728671 10.710558 0.000007 -0.000000 -0.000000 0.000000 -0.000680 9.278137 -0.000000 0.000000 -0.000001 
0.000006 104.270477 1.554256 0.000010 0.000003 -0.000113 -0.000005 10.181587 0.131522 0.000001 -0.000003 0.000084 -0.000000 9.893967 -1.470711 0.000001 0.000000 -0.000000 -0.000000 9.220802 -1.370642 0.000000 -0.000000 -0.000000 0.000001 16.740433 -2.049030 0.000000 -0.000000 -0.000000 0.000000 9.617859 1.685014 0.000000 0.000000 0.000000 0.000002 22.037384 7.501101 0.000000 -0.000000 0.000000 -4.569968 11.014880 -2.160881 0.000008 0.000001 -0.000038 -10.592773 -0.524845 -2.231737 70.858916 69.023604 -52.133283 -27.841488 0.000013 0.000591 -127.691616 69.955084 109.869713 -28.328835 0.000022 0.000030 -0.000323 -0.000044 0.000007 -2.464385 -1.574071 2.682188 10.732543 -111.728590 58.555943 -3.214906 -1.873046 1.924468 91.812899 -130.768603 139.988306 -2.654632 -1.528266 1.512855 271.522996 -36.262181 -36.797805 -2.018850 -1.151987 1.108067 -0.000000 -0.000003 0.000002 -9.108306 -0.517861 2.260383 226.779629 10.078797 23.109148 -3.699997 0.000006 0.001764 230.503612 14.325021 29.813076 -2.850023 -0.000006 0.000019 236.342304 13.758451 25.389820 -2.772171 -0.000015 -0.000019 -0.000001 0.000000 0.000000 -9.532509 -0.000051 0.000499 226.778004 8.389001 19.452158 -3.700011 0.000023 0.004257 229.822041 13.332659 28.141790 -2.950008 -0.000047 -0.001541 236.718565 10.597154 19.489858 -2.946625 0.000001 -0.000158 -0.000001 0.000000 0.000000 -9.103618 -0.043072 -1.864602 228.025592 5.850002 13.017541 -3.379274 -0.000067 -0.000515 232.622200 5.501915 11.126959 -2.889723 -0.000055 0.000884 237.678234 4.336980 7.934690 -2.638802 -0.000013 0.000927 0.000003 0.000001 0.000000 -8.076674 -0.486770 -3.805789 231.847602 2.924886 5.780323 -3.599990 -0.000155 -0.003232 234.063971 -1.298762 -3.179075 -2.099977 -0.000150 -0.005274 235.425419 -1.036338 -2.364972 -2.115777 -0.000027 -0.003648 -0.000000 -0.000001 -0.000003 4.570446 11.014691 -2.160851 -0.000018 0.000010 -0.000021 10.592519 -0.524548 -2.232383 59.639279 -67.142460 41.652976 27.841747 -0.000087 -0.000090 46.709861 -108.875217 62.262024 28.328833 -0.000013 0.000035 0.000024 -0.000089 -0.000000 2.466041 -1.576198 2.681868 -193.946199 63.140980 147.758643 3.217811 -1.872023 1.916536 259.433206 49.926617 49.055737 2.656046 -1.528763 1.514600 261.728396 36.816089 42.907382 2.020895 -1.154059 1.115142 0.000002 0.000008 0.000001 9.109244 -0.517728 2.260094 51.354843 -167.876474 155.103405 3.699896 0.000274 -0.000102 233.671153 -16.034375 -31.130687 2.849920 0.000317 0.000568 235.185598 -13.933750 -26.318961 2.774881 -0.000029 -0.000032 0.000006 -0.000001 -0.000001 9.533347 0.000341 0.000252 228.552432 -9.464036 -20.788244 3.699916 0.000294 0.000008 231.915685 -14.573301 -29.430411 2.949929 0.000280 0.000198 235.453805 -12.509965 -23.561465 2.952871 -0.000046 0.000072 -0.000001 0.000000 0.000001 9.104478 -0.042734 -1.864866 230.779306 -9.273113 -19.396274 3.149931 0.000339 0.000274 232.351124 -10.731854 -21.639019 2.949922 0.000316 0.000301 235.333020 -9.422442 -17.869204 2.644319 0.000015 0.000055 0.000000 -0.000000 -0.000001 8.077734 -0.486588 -3.806028 234.966403 -7.701581 -15.478807 3.599913 0.000360 0.014957 231.805883 -6.105736 -13.268511 2.099956 0.000346 0.007930 228.710209 -6.658608 -15.380392 2.125496 -0.000016 0.007508 0.000004 -0.000000 -0.000000 -8.207786 -6.751667 -1.599560 -0.077001 -0.000003 0.000080 -0.000002 -44.370110 0.345938 0.153719 -0.000000 -0.000000 0.000000 -44.423679 -3.043532 -0.076700 0.000000 -0.000002 -0.000006 -8.728667 10.710559 -0.000009 -0.000000 -0.000000 -0.000001 -0.000679 9.278123 0.000000 -0.000000 -0.000000 8.207792 -6.751710 -1.599556 -0.074518 -0.000003 0.000081 -0.000002 -44.370014 0.346960 0.148822 0.000002 0.000000 -0.000001 -44.423664 -3.044403 -0.074314 0.000000 -0.000002 -0.000004 -8.728671 10.710558 0.000007 -0.000000 -0.000000 0.000000 -0.000680 9.278137 -0.000000 0.000000 -0.000001 
